<svg xmlns="http://www.w3.org/2000/svg" width="84.416" height="84.416" viewBox="0 0 84.416 84.416">
  <g id="equipaje" transform="translate(-1 -1)">
    <path id="Trazado_1095669" data-name="Trazado 1095669" d="M36.4,30.922v-1.5a4.079,4.079,0,0,0-2.723-3.834v-8.42H36.4a2.726,2.726,0,0,0,2.723-2.723V11.723A2.726,2.726,0,0,0,36.4,9H6.446a2.726,2.726,0,0,0-2.723,2.723v2.723a2.726,2.726,0,0,0,2.723,2.723H9.169v8.42a4.079,4.079,0,0,0-2.723,3.834v1.5A6.818,6.818,0,0,0,1,37.593V70.27a6.8,6.8,0,0,0,4.514,6.382,4.047,4.047,0,0,0-.429,1.788,4.085,4.085,0,1,0,8.169,0A4.039,4.039,0,0,0,13,77.077H29.844a4.006,4.006,0,0,0-.252,1.362,4.085,4.085,0,1,0,8.169,0,4.047,4.047,0,0,0-.429-1.788,6.8,6.8,0,0,0,4.514-6.382V37.593a6.818,6.818,0,0,0-5.446-6.67Zm-5.446-5.584H28.231V17.169h2.723Zm-5.446-8.169v8.169H17.339V17.169ZM6.446,11.723H36.4v2.723H6.446Zm8.169,5.446v8.169H11.892V17.169ZM10.531,28.062H32.316a1.363,1.363,0,0,1,1.362,1.362v1.362H9.169V29.423A1.363,1.363,0,0,1,10.531,28.062ZM7.808,33.508H35.039a4.09,4.09,0,0,1,4.085,4.085V68.908H36.4V53.931a4.085,4.085,0,0,0-8.169,0V68.908H25.508V53.931a4.085,4.085,0,0,0-8.169,0V68.908H14.615V53.931a4.085,4.085,0,0,0-8.169,0V68.908H3.723V37.593A4.09,4.09,0,0,1,7.808,33.508Zm25.869,35.4H30.954V53.931a1.362,1.362,0,1,1,2.723,0Zm-10.892,0H20.062V53.931a1.362,1.362,0,0,1,2.723,0Zm-10.892,0H9.169V53.931a1.362,1.362,0,1,1,2.723,0Zm-1.362,9.531a1.362,1.362,0,1,1-1.362-1.362A1.363,1.363,0,0,1,10.531,78.439ZM33.677,79.8a1.362,1.362,0,1,1,1.362-1.362A1.363,1.363,0,0,1,33.677,79.8Zm1.362-5.446H7.808a4.079,4.079,0,0,1-3.834-2.723h34.9A4.076,4.076,0,0,1,35.039,74.354Z" transform="translate(0 2.892)" fill="#2ebde1"/>
    <path id="Trazado_1095670" data-name="Trazado 1095670" d="M9.085,39.892H30.869a4.09,4.09,0,0,0,4.085-4.085V33.085A4.09,4.09,0,0,0,30.869,29H9.085A4.09,4.09,0,0,0,5,33.085v2.723A4.09,4.09,0,0,0,9.085,39.892ZM7.723,33.085a1.363,1.363,0,0,1,1.362-1.362H30.869a1.363,1.363,0,0,1,1.362,1.362v2.723a1.363,1.363,0,0,1-1.362,1.362H9.085a1.363,1.363,0,0,1-1.362-1.362Z" transform="translate(1.446 10.123)" fill="#2ebde1"/>
    <path id="Trazado_1095671" data-name="Trazado 1095671" d="M72.485,33.213V18.7a6.815,6.815,0,0,0-6.808-6.808H64.316a10.892,10.892,0,0,0-21.785,0H41.169A6.815,6.815,0,0,0,34.362,18.7V33.213A20.293,20.293,0,0,0,33,40.485v8.169a6.815,6.815,0,0,0,6.808,6.808h1.362V78.608a6.787,6.787,0,0,0,12.254,4.042,6.787,6.787,0,0,0,12.254-4.042V55.462h1.362a6.815,6.815,0,0,0,6.808-6.808V40.485A20.293,20.293,0,0,0,72.485,33.213Zm-6.808-18.6A4.09,4.09,0,0,1,69.762,18.7v9.583a20.473,20.473,0,0,0-10.327-7.316,10.921,10.921,0,0,0,4.523-6.352ZM64.316,39.123a1.363,1.363,0,0,1-1.362,1.362H60.231a1.363,1.363,0,0,1-1.362-1.362V28.189a6.751,6.751,0,0,0,1.362-4.038,17.631,17.631,0,0,1,4.085,2.413Zm-21.785,0V26.562a17.728,17.728,0,0,1,4.085-2.413,6.742,6.742,0,0,0,1.362,4.038V39.123a1.363,1.363,0,0,1-1.362,1.362H43.892A1.363,1.363,0,0,1,42.531,39.123Zm6.808-14.977v-.867a17.126,17.126,0,0,1,8.169,0v.867a4.085,4.085,0,1,1-8.169,0ZM53.423,3.723a8.169,8.169,0,1,1-8.169,8.169A8.178,8.178,0,0,1,53.423,3.723ZM37.085,18.7a4.09,4.09,0,0,1,4.085-4.085h1.72a10.915,10.915,0,0,0,4.523,6.352,20.465,20.465,0,0,0-10.327,7.316Zm2.723,34.039a4.09,4.09,0,0,1-4.085-4.085V40.485a17.616,17.616,0,0,1,4.085-11.294v9.932a4.064,4.064,0,0,0,1.362,3.023V52.739ZM62.954,78.608a4.085,4.085,0,0,1-8.169,0V48.654H52.062V78.608a4.085,4.085,0,0,1-8.169,0v-35.4h2.723A4.09,4.09,0,0,0,50.7,39.123V30.377a6.711,6.711,0,0,0,5.446,0v8.747a4.09,4.09,0,0,0,4.085,4.085h2.723Zm8.169-29.954a4.09,4.09,0,0,1-4.085,4.085H65.677V42.146a4.061,4.061,0,0,0,1.362-3.023V29.191a17.616,17.616,0,0,1,4.085,11.294Z" transform="translate(11.57)" fill="#2ebde1"/>
  </g>
</svg>
